<svg width="71" height="21" viewBox="0 0 71 21" fill="none" xmlns="http://www.w3.org/2000/svg">
<path d="M25.0414 12.9281V7.53648H27.1685C27.5775 7.53648 27.9258 7.61458 28.2137 7.77079C28.5015 7.92523 28.7209 8.14023 28.8718 8.41578C29.0245 8.68957 29.1009 9.00549 29.1009 9.36352C29.1009 9.72156 29.0236 10.0375 28.8692 10.3113C28.7148 10.5851 28.491 10.7983 28.1979 10.951C27.9065 11.1037 27.5538 11.18 27.1396 11.18H25.7838V10.2665H26.9553C27.1747 10.2665 27.3554 10.2288 27.4976 10.1533C27.6415 10.0761 27.7486 9.96991 27.8188 9.83476C27.8907 9.69787 27.9267 9.54079 27.9267 9.36352C27.9267 9.18451 27.8907 9.0283 27.8188 8.89492C27.7486 8.75978 27.6415 8.65535 27.4976 8.58163C27.3537 8.50617 27.1712 8.46843 26.95 8.46843H26.1813V12.9281H25.0414ZM30.9417 7.53648V12.9281H29.8202V7.53648H30.9417ZM32.9932 13.0044C32.7352 13.0044 32.5053 12.9597 32.3035 12.8702C32.1016 12.7789 31.9419 12.6447 31.8243 12.4674C31.7085 12.2884 31.6506 12.0655 31.6506 11.7987C31.6506 11.5741 31.6918 11.3854 31.7743 11.2327C31.8568 11.08 31.9691 10.9571 32.1113 10.8641C32.2534 10.7711 32.4149 10.7009 32.5957 10.6535C32.7782 10.6061 32.9695 10.5728 33.1696 10.5535C33.4048 10.5289 33.5943 10.5061 33.7382 10.485C33.8822 10.4622 33.9866 10.4289 34.0515 10.385C34.1165 10.3411 34.1489 10.2762 34.1489 10.1902V10.1744C34.1489 10.0076 34.0963 9.87864 33.991 9.78738C33.8874 9.69611 33.74 9.65048 33.5487 9.65048C33.3469 9.65048 33.1863 9.69524 33.0669 9.78474C32.9476 9.8725 32.8686 9.98307 32.83 10.1165L31.7927 10.0322C31.8454 9.7865 31.9489 9.57413 32.1034 9.39512C32.2578 9.21434 32.457 9.07569 32.701 8.97916C32.9467 8.88088 33.231 8.83173 33.554 8.83173C33.7786 8.83173 33.9936 8.85806 34.199 8.91071C34.4061 8.96337 34.5895 9.04498 34.7492 9.15555C34.9106 9.26612 35.0379 9.40828 35.1309 9.58203C35.2239 9.75403 35.2704 9.96025 35.2704 10.2007V12.9281H34.2069V12.3674H34.1753C34.1103 12.4937 34.0234 12.6052 33.9146 12.7017C33.8058 12.7965 33.6751 12.8711 33.5224 12.9255C33.3697 12.9781 33.1933 13.0044 32.9932 13.0044ZM33.3144 12.2305C33.4794 12.2305 33.625 12.198 33.7514 12.133C33.8778 12.0664 33.9769 11.9768 34.0489 11.8645C34.1209 11.7522 34.1568 11.625 34.1568 11.4828V11.0537C34.1217 11.0765 34.0735 11.0975 34.012 11.1169C33.9524 11.1344 33.8848 11.1511 33.8093 11.1669C33.7339 11.1809 33.6584 11.1941 33.5829 11.2064C33.5074 11.2169 33.439 11.2265 33.3776 11.2353C33.2459 11.2546 33.131 11.2853 33.0327 11.3275C32.9344 11.3696 32.8581 11.4266 32.8037 11.4986C32.7493 11.5688 32.722 11.6565 32.722 11.7618C32.722 11.9145 32.7773 12.0313 32.8879 12.112C33.0002 12.191 33.1424 12.2305 33.3144 12.2305ZM36.6881 14.4445C36.5459 14.4445 36.4126 14.4331 36.2879 14.4103C36.1651 14.3892 36.0633 14.362 35.9826 14.3287L36.2353 13.4915C36.3669 13.5318 36.4854 13.5538 36.5907 13.5573C36.6978 13.5608 36.7899 13.5362 36.8671 13.4836C36.9461 13.4309 37.0102 13.3414 37.0593 13.2151L37.1251 13.0439L35.6745 8.88439H36.854L37.6911 11.854H37.7333L38.5783 8.88439H39.7656L38.194 13.3651C38.1185 13.5827 38.0158 13.7723 37.8859 13.9338C37.7578 14.097 37.5955 14.2225 37.3989 14.3102C37.2023 14.3997 36.9654 14.4445 36.6881 14.4445ZM43.0505 7.53648L44.3536 11.6328H44.4037L45.7095 7.53648H46.9731L45.1145 12.9281H43.6455L41.7842 7.53648H43.0505ZM47.601 12.9281V8.88439H48.7225V12.9281H47.601ZM48.1644 8.36313C47.9976 8.36313 47.8546 8.30784 47.7353 8.19727C47.6177 8.08495 47.5589 7.95068 47.5589 7.79448C47.5589 7.64003 47.6177 7.50752 47.7353 7.39695C47.8546 7.28463 47.9976 7.22846 48.1644 7.22846C48.3311 7.22846 48.4733 7.28463 48.5909 7.39695C48.7102 7.50752 48.7699 7.64003 48.7699 7.79448C48.7699 7.95068 48.7102 8.08495 48.5909 8.19727C48.4733 8.30784 48.3311 8.36313 48.1644 8.36313ZM51.1109 12.9939C50.8038 12.9939 50.5256 12.9149 50.2764 12.757C50.0289 12.5973 49.8324 12.363 49.6867 12.0541C49.5428 11.7434 49.4708 11.3626 49.4708 10.9115C49.4708 10.4482 49.5454 10.0629 49.6946 9.75579C49.8438 9.44689 50.0421 9.2161 50.2896 9.06341C50.5388 8.90896 50.8117 8.83173 51.1083 8.83173C51.3347 8.83173 51.5234 8.87035 51.6743 8.94757C51.827 9.02304 51.9499 9.11781 52.0429 9.23189C52.1377 9.34422 52.2096 9.45479 52.2588 9.5636H52.293V7.53648H53.4119V12.9281H52.3062V12.2805H52.2588C52.2061 12.3928 52.1315 12.5042 52.035 12.6148C51.9402 12.7236 51.8165 12.814 51.6638 12.886C51.5129 12.9579 51.3286 12.9939 51.1109 12.9939ZM51.4663 12.1015C51.6471 12.1015 51.7998 12.0523 51.9244 11.954C52.0508 11.854 52.1473 11.7145 52.214 11.5354C52.2825 11.3564 52.3167 11.1467 52.3167 10.9062C52.3167 10.6658 52.2833 10.4569 52.2166 10.2797C52.15 10.1024 52.0534 9.96552 51.9271 9.86899C51.8007 9.77246 51.6471 9.72419 51.4663 9.72419C51.2821 9.72419 51.1267 9.77421 51.0004 9.87425C50.874 9.97429 50.7784 10.1129 50.7134 10.2902C50.6485 10.4675 50.616 10.6728 50.616 10.9062C50.616 11.1414 50.6485 11.3494 50.7134 11.5302C50.7801 11.7092 50.8758 11.8496 51.0004 11.9514C51.1267 12.0514 51.2821 12.1015 51.4663 12.1015ZM56.1768 13.0071C55.7608 13.0071 55.4028 12.9228 55.1027 12.7543C54.8043 12.5841 54.5744 12.3437 54.4129 12.033C54.2514 11.7206 54.1707 11.3512 54.1707 10.9247C54.1707 10.5087 54.2514 10.1437 54.4129 9.8295C54.5744 9.51534 54.8017 9.27051 55.0948 9.095C55.3896 8.91949 55.7354 8.83173 56.132 8.83173C56.3988 8.83173 56.6471 8.87473 56.8771 8.96073C57.1087 9.04498 57.3106 9.17222 57.4826 9.34246C57.6563 9.51271 57.7915 9.72683 57.888 9.98482C57.9845 10.2411 58.0328 10.5412 58.0328 10.8852V11.1932H54.6183V10.4982H56.9771C56.9771 10.3367 56.942 10.1937 56.8718 10.0691C56.8016 9.94446 56.7042 9.84705 56.5796 9.77685C56.4567 9.70489 56.3137 9.66891 56.1504 9.66891C55.9802 9.66891 55.8293 9.7084 55.6976 9.78738C55.5678 9.8646 55.466 9.96903 55.3923 10.1007C55.3185 10.2305 55.2808 10.3753 55.279 10.535V11.1958C55.279 11.3959 55.3159 11.5688 55.3896 11.7145C55.4651 11.8601 55.5713 11.9725 55.7082 12.0514C55.8451 12.1304 56.0074 12.1699 56.1952 12.1699C56.3198 12.1699 56.4339 12.1524 56.5374 12.1173C56.641 12.0822 56.7296 12.0295 56.8033 11.9593C56.8771 11.8891 56.9332 11.8031 56.9718 11.7013L58.0091 11.7697C57.9564 12.019 57.8485 12.2366 57.6853 12.4226C57.5238 12.6069 57.3149 12.7508 57.0587 12.8544C56.8042 12.9562 56.5102 13.0071 56.1768 13.0071ZM60.5917 13.0071C60.1828 13.0071 59.8291 12.9202 59.5307 12.7464C59.2341 12.5709 59.0051 12.327 58.8436 12.0146C58.6822 11.7004 58.6014 11.3362 58.6014 10.922C58.6014 10.5043 58.6822 10.1393 58.8436 9.82687C59.0051 9.51271 59.2341 9.26875 59.5307 9.095C59.8291 8.91949 60.1828 8.83173 60.5917 8.83173C61.0006 8.83173 61.3534 8.91949 61.65 9.095C61.9484 9.26875 62.1783 9.51271 62.3398 9.82687C62.5012 10.1393 62.582 10.5043 62.582 10.922C62.582 11.3362 62.5012 11.7004 62.3398 12.0146C62.1783 12.327 61.9484 12.5709 61.65 12.7464C61.3534 12.9202 61.0006 13.0071 60.5917 13.0071ZM60.597 12.1383C60.783 12.1383 60.9383 12.0857 61.0629 11.9804C61.1875 11.8733 61.2814 11.7276 61.3446 11.5433C61.4096 11.3591 61.442 11.1493 61.442 10.9141C61.442 10.679 61.4096 10.4692 61.3446 10.2849C61.2814 10.1007 61.1875 9.95499 61.0629 9.84793C60.9383 9.74087 60.783 9.68734 60.597 9.68734C60.4092 9.68734 60.2512 9.74087 60.1231 9.84793C59.9967 9.95499 59.9011 10.1007 59.8361 10.2849C59.7729 10.4692 59.7414 10.679 59.7414 10.9141C59.7414 11.1493 59.7729 11.3591 59.8361 11.5433C59.9011 11.7276 59.9967 11.8733 60.1231 11.9804C60.2512 12.0857 60.4092 12.1383 60.597 12.1383Z" fill="#141E32"/>
<circle cx="14.4822" cy="10.4587" r="6.58976" fill="#F0C932"/>
<path d="M17.4682 10.4586L13.1436 12.9553V7.96181L17.4682 10.4586Z" fill="white"/>
</svg>
